<svg width="51" height="50" viewBox="0 0 51 50" fill="none" xmlns="http://www.w3.org/2000/svg">
<g id="Group 5">
<g id="&#240;&#159;&#166;&#134; icon &#34;user circle&#34;" filter="url(#filter0_f_5_131)">
<path id="Vector" d="M25.5 42C15.8348 42 8 34.3891 8 25C8 15.6109 15.8348 8 25.5 8C35.1652 8 43 15.6109 43 25C43 34.3891 35.1652 42 25.5 42ZM25.5 38.6C29.213 38.6 32.774 37.1671 35.3995 34.6167C38.025 32.0662 39.5 28.6069 39.5 25C39.5 21.3931 38.025 17.9338 35.3995 15.3833C32.774 12.8329 29.213 11.4 25.5 11.4C21.787 11.4 18.226 12.8329 15.6005 15.3833C12.975 17.9338 11.5 21.3931 11.5 25C11.5 28.6069 12.975 32.0662 15.6005 34.6167C18.226 37.1671 21.787 38.6 25.5 38.6ZM25.5 14.8C27.3565 14.8 29.137 15.5164 30.4497 16.7917C31.7625 18.0669 32.5 19.7965 32.5 21.6V25C32.5 26.8035 31.7625 28.5331 30.4497 29.8083C29.137 31.0836 27.3565 31.8 25.5 31.8C23.6435 31.8 21.863 31.0836 20.5503 29.8083C19.2375 28.5331 18.5 26.8035 18.5 25V21.6C18.5 19.7965 19.2375 18.0669 20.5503 16.7917C21.863 15.5164 23.6435 14.8 25.5 14.8ZM25.5 18.2C24.5717 18.2 23.6815 18.5582 23.0251 19.1958C22.3687 19.8335 22 20.6983 22 21.6V25C22 25.9017 22.3687 26.7665 23.0251 27.4042C23.6815 28.0418 24.5717 28.4 25.5 28.4C26.4283 28.4 27.3185 28.0418 27.9749 27.4042C28.6313 26.7665 29 25.9017 29 25V21.6C29 20.6983 28.6313 19.8335 27.9749 19.1958C27.3185 18.5582 26.4283 18.2 25.5 18.2ZM18.3425 36.6892C17.3345 36.1059 16.4056 35.4023 15.5775 34.5948C16.617 33.4082 17.9418 32.4891 19.4345 31.919C19.6497 31.8298 19.881 31.7835 20.115 31.7826C20.3489 31.7818 20.5806 31.8266 20.7964 31.9142C21.0122 32.0019 21.2077 32.1307 21.3714 32.293C21.5351 32.4553 21.6636 32.6479 21.7494 32.8593C21.8352 33.0707 21.8764 33.2967 21.8708 33.5239C21.8651 33.7511 21.8126 33.9748 21.7164 34.1819C21.6201 34.3891 21.4821 34.5753 21.3105 34.7298C21.1389 34.8842 20.9372 35.0036 20.7173 35.081C19.7863 35.438 18.9812 35.9956 18.3425 36.6892ZM32.5945 36.7266C31.9169 35.9985 31.0713 35.4369 30.127 35.0878C29.9057 35.0132 29.7021 34.8962 29.5282 34.7437C29.3543 34.5912 29.2137 34.4064 29.1147 34.2002C29.0157 33.9939 28.9603 33.7705 28.9519 33.5431C28.9434 33.3157 28.9821 33.0889 29.0655 32.8763C29.1489 32.6636 29.2754 32.4694 29.4376 32.3052C29.5997 32.1409 29.7941 32.01 30.0093 31.9201C30.2245 31.8302 30.4561 31.7831 30.6903 31.7818C30.9246 31.7804 31.1567 31.8248 31.373 31.9122C32.9197 32.4836 34.294 33.4229 35.37 34.6441C34.538 35.4481 33.6055 36.1477 32.5945 36.7266Z" fill="#2805FF"/>
</g>
<g id="&#240;&#159;&#166;&#134; icon &#34;user circle&#34;_2">
<path id="Vector_2" d="M26 40C17.7155 40 11 33.2845 11 25C11 16.7155 17.7155 10 26 10C34.2845 10 41 16.7155 41 25C41 33.2845 34.2845 40 26 40ZM26 37C29.1826 37 32.2348 35.7357 34.4853 33.4853C36.7357 31.2348 38 28.1826 38 25C38 21.8174 36.7357 18.7652 34.4853 16.5147C32.2348 14.2643 29.1826 13 26 13C22.8174 13 19.7652 14.2643 17.5147 16.5147C15.2643 18.7652 14 21.8174 14 25C14 28.1826 15.2643 31.2348 17.5147 33.4853C19.7652 35.7357 22.8174 37 26 37ZM26 16C27.5913 16 29.1174 16.6321 30.2426 17.7574C31.3679 18.8826 32 20.4087 32 22V25C32 26.5913 31.3679 28.1174 30.2426 29.2426C29.1174 30.3679 27.5913 31 26 31C24.4087 31 22.8826 30.3679 21.7574 29.2426C20.6321 28.1174 20 26.5913 20 25V22C20 20.4087 20.6321 18.8826 21.7574 17.7574C22.8826 16.6321 24.4087 16 26 16ZM26 19C25.2044 19 24.4413 19.3161 23.8787 19.8787C23.3161 20.4413 23 21.2044 23 22V25C23 25.7956 23.3161 26.5587 23.8787 27.1213C24.4413 27.6839 25.2044 28 26 28C26.7956 28 27.5587 27.6839 28.1213 27.1213C28.6839 26.5587 29 25.7956 29 25V22C29 21.2044 28.6839 20.4413 28.1213 19.8787C27.5587 19.3161 26.7956 19 26 19ZM19.865 35.314C19.001 34.7993 18.2048 34.1785 17.495 33.466C18.386 32.419 19.5215 31.608 20.801 31.105C20.9854 31.0263 21.1837 30.9854 21.3842 30.9847C21.5847 30.9839 21.7834 31.0234 21.9683 31.1008C22.1533 31.1781 22.3209 31.2918 22.4612 31.435C22.6015 31.5782 22.7117 31.7482 22.7852 31.9347C22.8587 32.1212 22.8941 32.3206 22.8892 32.5211C22.8844 32.7215 22.8394 32.9189 22.7569 33.1017C22.6744 33.2845 22.5561 33.4488 22.409 33.5851C22.2619 33.7213 22.089 33.8267 21.9005 33.895C21.1025 34.21 20.4125 34.702 19.865 35.314ZM32.081 35.347C31.5002 34.7046 30.7754 34.209 29.966 33.901C29.7763 33.8352 29.6018 33.7319 29.4527 33.5974C29.3037 33.4629 29.1831 33.2998 29.0983 33.1178C29.0134 32.9358 28.966 32.7387 28.9587 32.538C28.9515 32.3373 28.9846 32.1373 29.0561 31.9497C29.1276 31.762 29.2361 31.5907 29.3751 31.4458C29.514 31.3008 29.6807 31.1853 29.8651 31.1059C30.0496 31.0266 30.2481 30.9851 30.4489 30.9839C30.6496 30.9827 30.8486 31.0219 31.034 31.099C32.3597 31.6032 33.5377 32.432 34.46 33.5095C33.7468 34.2189 32.9476 34.8362 32.081 35.347Z" fill="white"/>
</g>
</g>
<defs>
<filter id="filter0_f_5_131" x="0" y="0" width="51" height="50" filterUnits="userSpaceOnUse" color-interpolation-filters="sRGB">
<feFlood flood-opacity="0" result="BackgroundImageFix"/>
<feBlend mode="normal" in="SourceGraphic" in2="BackgroundImageFix" result="shape"/>
<feGaussianBlur stdDeviation="4" result="effect1_foregroundBlur_5_131"/>
</filter>
</defs>
</svg>
