<svg width="12" height="20" viewBox="0 0 12 20" fill="none" xmlns="http://www.w3.org/2000/svg">
<g id="&#240;&#159;&#166;&#134; icon &#34;chevron right&#34;">
<path id="Vector" d="M8.21096 10L0.44065 2.55047C0.154706 2.26663 -0.00351723 1.88647 5.9341e-05 1.49188C0.00363591 1.09728 0.168726 0.719823 0.459772 0.440792C0.750818 0.16176 1.14453 0.00348581 1.55612 5.68913e-05C1.96771 -0.00337203 2.36423 0.148319 2.66029 0.422459L11.5404 8.936C11.8347 9.21822 12 9.60094 12 10C12 10.3991 11.8347 10.7818 11.5404 11.064L2.66029 19.5775C2.36423 19.8517 1.96771 20.0034 1.55612 19.9999C1.14453 19.9965 0.750818 19.8382 0.459772 19.5592C0.168726 19.2802 0.00363591 18.9027 5.9341e-05 18.5081C-0.00351723 18.1135 0.154706 17.7334 0.44065 17.4495L8.21096 10Z" fill="white"/>
</g>
</svg>
